<svg width="35" height="35" viewBox="0 0 35 35" fill="none" xmlns="http://www.w3.org/2000/svg">
<g filter="url(#filter0_d_1302_323)">
<path d="M16.6555 13.5C20.3404 13.5 23.3277 10.7018 23.3277 7.25C23.3277 3.79822 20.3404 1 16.6555 1C12.9705 1 9.98328 3.79822 9.98328 7.25C9.98328 10.7018 12.9705 13.5 16.6555 13.5Z" stroke="white" stroke-width="2"/>
<path d="M23.3278 26H7.66946C7.29099 26.0001 6.91683 25.9248 6.57181 25.779C6.2268 25.6333 5.91881 25.4205 5.6683 25.1547C5.41779 24.889 5.23049 24.5764 5.11882 24.2376C5.00715 23.8989 4.97367 23.5418 5.0206 23.19L5.54103 19.285C5.66206 18.3778 6.13274 17.5432 6.86457 16.9383C7.5964 16.3333 8.53896 15.9996 9.515 16H9.98338" stroke="white" stroke-width="2" stroke-linecap="round" stroke-linejoin="round"/>
<path d="M25.9966 14.75V22.25" stroke="white" stroke-width="2" stroke-linecap="round" stroke-linejoin="round"/>
<path d="M21.9932 18.5H29.9998" stroke="white" stroke-width="2" stroke-linecap="round" stroke-linejoin="round"/>
</g>
<defs>
<filter id="filter0_d_1302_323" x="0" y="0" width="34.9998" height="35" filterUnits="userSpaceOnUse" color-interpolation-filters="sRGB">
<feFlood flood-opacity="0" result="BackgroundImageFix"/>
<feColorMatrix in="SourceAlpha" type="matrix" values="0 0 0 0 0 0 0 0 0 0 0 0 0 0 0 0 0 0 127 0" result="hardAlpha"/>
<feOffset dy="4"/>
<feGaussianBlur stdDeviation="2"/>
<feComposite in2="hardAlpha" operator="out"/>
<feColorMatrix type="matrix" values="0 0 0 0 0 0 0 0 0 0 0 0 0 0 0 0 0 0 0.25 0"/>
<feBlend mode="normal" in2="BackgroundImageFix" result="effect1_dropShadow_1302_323"/>
<feBlend mode="normal" in="SourceGraphic" in2="effect1_dropShadow_1302_323" result="shape"/>
</filter>
</defs>
</svg>
