<svg width="33" height="33" viewBox="0 0 33 33" fill="none" xmlns="http://www.w3.org/2000/svg">
<g filter="url(#filter0_d_1302_335)">
<path d="M7.75 9.63286V16.0978C7.75 16.957 6.9625 17.6439 5.95938 17.6439C4.96354 17.6439 4 16.9517 4 16.0978V9.63286C4 8.78969 4.96354 8.09747 5.95938 8.09747C6.94271 8.09747 7.75 8.78969 7.75 9.63286ZM8.45312 18.3977C8.45312 19.3133 9.3125 20.0502 10.3802 20.0502H11.676L11.6958 23.4613C11.6958 25.5209 15.2896 25.5049 15.2896 23.4613V20.0502H17.7115V23.4613C17.7115 25.5102 21.325 25.5156 21.325 23.4613V20.0502H22.6396C22.8918 20.0494 23.1413 20.0061 23.374 19.9227C23.6067 19.8393 23.8179 19.7174 23.9956 19.5639C24.1733 19.4105 24.314 19.2285 24.4097 19.0284C24.5053 18.8283 24.5541 18.614 24.5531 18.3977V8.38329H8.45312V18.3977ZM24.599 7.84112H8.38125C8.38125 5.45183 10.0479 3.37517 12.5219 2.29262L11.2781 0.322239C11.0958 0.048922 11.5583 -0.124357 11.7146 0.109659L12.9771 2.09701C15.249 1.23151 17.8604 1.27617 20.0281 2.09701L21.2844 0.115018C21.4469 -0.12525 21.9031 0.0533878 21.7208 0.327597L20.4771 2.29262C22.9312 3.37517 24.5979 5.45273 24.5979 7.84112H24.599ZM13.4854 4.74264C13.4854 4.58724 13.4134 4.43821 13.2853 4.32832C13.1571 4.21844 12.9833 4.15671 12.8021 4.15671C12.4312 4.15671 12.1385 4.42467 12.1385 4.74264C12.1385 5.06062 12.4385 5.32858 12.8021 5.32858C13.1865 5.32858 13.4854 5.06062 13.4854 4.74264ZM20.8687 4.74264C20.8696 4.58978 20.8005 4.44274 20.6762 4.33316C20.5519 4.22358 20.3824 4.16022 20.2042 4.15671C20.0229 4.15671 19.8491 4.21844 19.721 4.32832C19.5928 4.43821 19.5208 4.58724 19.5208 4.74264C19.5208 4.89804 19.5928 5.04708 19.721 5.15696C19.8491 5.26684 20.0229 5.32858 20.2042 5.32858C20.5687 5.32858 20.8687 5.06062 20.8687 4.74264ZM27.0406 8.09836C26.0573 8.09836 25.25 8.77361 25.25 9.63376V16.0987C25.25 16.9579 26.0573 17.6448 27.0406 17.6448C28.0437 17.6448 29 16.9526 29 16.0987V9.63376C29 8.77451 28.0365 8.09836 27.0406 8.09836Z" fill="white"/>
</g>
<defs>
<filter id="filter0_d_1302_335" x="0" y="0" width="33" height="33" filterUnits="userSpaceOnUse" color-interpolation-filters="sRGB">
<feFlood flood-opacity="0" result="BackgroundImageFix"/>
<feColorMatrix in="SourceAlpha" type="matrix" values="0 0 0 0 0 0 0 0 0 0 0 0 0 0 0 0 0 0 127 0" result="hardAlpha"/>
<feOffset dy="4"/>
<feGaussianBlur stdDeviation="2"/>
<feComposite in2="hardAlpha" operator="out"/>
<feColorMatrix type="matrix" values="0 0 0 0 0 0 0 0 0 0 0 0 0 0 0 0 0 0 0.25 0"/>
<feBlend mode="normal" in2="BackgroundImageFix" result="effect1_dropShadow_1302_335"/>
<feBlend mode="normal" in="SourceGraphic" in2="effect1_dropShadow_1302_335" result="shape"/>
</filter>
</defs>
</svg>
