<svg width="35" height="33" viewBox="0 0 35 33" fill="none" xmlns="http://www.w3.org/2000/svg">
<g filter="url(#filter0_d_1302_384)">
<path d="M18.0496 0C18.9362 1.18465 19.7444 2.41818 20.4695 3.69375C20.5761 3.67976 20.6837 3.67269 20.7915 3.67258C21.2263 3.67266 21.6524 3.78623 22.0208 4.00027C22.3893 4.21431 22.6853 4.52017 22.8749 4.88285C23.9057 4.79741 24.9395 4.74683 25.9743 4.73121C26.5705 4.72262 27.1691 4.72606 27.7706 4.74036C25.4918 2.01797 22.007 0.209723 18.0496 0ZM16.173 0.0228892C16.1276 0.0263226 16.082 0.0286115 16.0366 0.032331C14.9946 2.00824 14.1795 3.9607 13.5969 5.88769C13.8468 6.03097 14.0649 6.21701 14.2397 6.43588C15.6442 6.04212 17.0693 5.71458 18.5096 5.45451C18.5865 5.04085 18.7926 4.65716 19.1024 4.35096C18.2697 2.88776 17.2962 1.4446 16.173 0.0228892ZM14.1847 0.315299C10.9657 1.02592 8.14969 2.82612 6.28962 5.36238C7.71469 5.66526 9.12552 6.02302 10.5184 6.43474C10.7061 6.20035 10.9434 6.00389 11.2157 5.85739C11.4881 5.71088 11.7899 5.61741 12.1026 5.58269C12.6197 3.83652 13.3138 2.0792 14.1847 0.315299ZM26.8811 6.15721C25.5899 6.14948 24.3124 6.19841 23.0471 6.30026C22.9346 6.75268 22.6668 7.15907 22.2839 7.45846C22.7098 8.51946 23.0723 9.60137 23.3698 10.6993C23.6723 10.7291 23.9655 10.8138 24.2326 10.9486C24.4998 11.0834 24.7356 11.2656 24.9268 11.485C26.7165 10.9881 28.5393 10.5996 30.3834 10.3219C30.1349 8.87644 29.6082 7.48412 28.8283 6.21128C28.1759 6.17981 27.527 6.16093 26.8811 6.15692V6.15721ZM5.46096 6.66134C4.79288 7.86688 4.3458 9.16698 4.13801 10.5085C6.0806 9.475 8.05624 8.57317 10.0658 7.80809C10.0656 7.80523 10.0654 7.80237 10.0652 7.79951C8.57338 7.35832 7.03647 6.98265 5.46096 6.66134ZM18.7658 6.85704C17.392 7.10537 16.0326 7.41763 14.6926 7.79264C14.6916 7.81698 14.6902 7.84131 14.6883 7.8656C17.0813 8.80522 19.3799 9.93922 21.5572 11.2544C21.6583 11.1683 21.7675 11.0907 21.8835 11.0226C21.601 9.98596 21.2572 8.96451 20.8535 7.96288C20.8329 7.96352 20.8122 7.9639 20.7915 7.96403C20.378 7.96387 19.972 7.8611 19.6159 7.66638C19.2597 7.47166 18.9663 7.1921 18.7661 6.85676L18.7658 6.85704ZM10.6398 9.12909C8.38875 9.98887 6.17662 11.0295 4.00124 12.2409C4.00124 12.2543 4 12.2672 4 12.2807C4 15.5326 5.3563 18.4831 7.5709 20.6801C8.83405 19.6332 10.152 18.6444 11.52 17.7174C10.9396 15.0568 10.8553 12.337 11.2356 9.57886C11.0114 9.46091 10.81 9.30909 10.6398 9.12966V9.12909ZM14.0733 9.17458C13.7176 9.52865 13.2432 9.76095 12.7272 9.83379C12.4024 12.2071 12.4487 14.5392 12.884 16.8276C15.4027 15.2439 18.0437 13.9124 20.81 12.8466C20.81 12.8421 20.81 12.8376 20.81 12.8331C20.8103 12.7288 20.8187 12.6245 20.8353 12.5213C18.6952 11.2184 16.4319 10.0983 14.0733 9.17458ZM30.5372 11.7479C28.8155 12.0117 27.1135 12.3756 25.4411 12.8374C25.4405 13.1485 25.3668 13.4557 25.2253 13.7378C26.6952 14.8509 28.0843 16.0525 29.3837 17.3349C30.1555 15.746 30.5536 14.0231 30.5517 12.2807C30.5517 12.1021 30.5455 11.9247 30.5372 11.7482V11.7479ZM21.3312 14.1882C18.4982 15.2843 15.8013 16.6725 13.2301 18.3386C13.792 20.4381 14.6864 22.4996 15.9251 24.5207C16.3691 24.5622 16.8198 24.5833 17.2759 24.5833C19.0764 24.5833 20.7915 24.2514 22.3556 23.6523C22.8783 20.6727 22.9811 17.7666 22.6433 14.9315C22.1273 14.8295 21.6644 14.5673 21.3312 14.1882ZM24.1657 14.7776C24.4837 17.4242 24.4359 20.1251 24.0391 22.8724C25.9148 21.8438 27.489 20.4039 28.6233 18.6793C27.2421 17.28 25.7523 15.9762 24.1657 14.7784V14.7776ZM11.9056 19.2281C10.7988 20.001 9.72663 20.8157 8.69193 21.6701C10.2268 22.8778 12.0391 23.7447 13.9905 24.2045C13.0893 22.5748 12.3965 20.9142 11.9053 19.2281H11.9056Z" fill="white"/>
</g>
<defs>
<filter id="filter0_d_1302_384" x="0" y="0" width="34.5518" height="32.5833" filterUnits="userSpaceOnUse" color-interpolation-filters="sRGB">
<feFlood flood-opacity="0" result="BackgroundImageFix"/>
<feColorMatrix in="SourceAlpha" type="matrix" values="0 0 0 0 0 0 0 0 0 0 0 0 0 0 0 0 0 0 127 0" result="hardAlpha"/>
<feOffset dy="4"/>
<feGaussianBlur stdDeviation="2"/>
<feComposite in2="hardAlpha" operator="out"/>
<feColorMatrix type="matrix" values="0 0 0 0 0 0 0 0 0 0 0 0 0 0 0 0 0 0 0.25 0"/>
<feBlend mode="normal" in2="BackgroundImageFix" result="effect1_dropShadow_1302_384"/>
<feBlend mode="normal" in="SourceGraphic" in2="effect1_dropShadow_1302_384" result="shape"/>
</filter>
</defs>
</svg>
