<svg width="35" height="35" viewBox="0 0 35 35" fill="none" xmlns="http://www.w3.org/2000/svg">
<g filter="url(#filter0_d_1302_310)">
<path d="M25.8333 8.5C28.1345 8.5 30 6.82107 30 4.75C30 2.67893 28.1345 1 25.8333 1C23.5321 1 21.6666 2.67893 21.6666 4.75C21.6666 6.82107 23.5321 8.5 25.8333 8.5Z" stroke="white" stroke-width="2"/>
<path d="M25.8334 26C28.1346 26 30.0001 24.3211 30.0001 22.25C30.0001 20.1789 28.1346 18.5 25.8334 18.5C23.5322 18.5 21.6667 20.1789 21.6667 22.25C21.6667 24.3211 23.5322 26 25.8334 26Z" stroke="white" stroke-width="2"/>
<path d="M9.16667 17.25C11.4679 17.25 13.3333 15.5711 13.3333 13.5C13.3333 11.4289 11.4679 9.75 9.16667 9.75C6.86548 9.75 5 11.4289 5 13.5C5 15.5711 6.86548 17.25 9.16667 17.25Z" stroke="white" stroke-width="2"/>
<path d="M22.2334 20.36L12.7695 15.3913M22.2334 6.64001L12.7695 11.6088L22.2334 6.64001Z" stroke="white" stroke-width="2" stroke-linecap="round" stroke-linejoin="round"/>
</g>
<defs>
<filter id="filter0_d_1302_310" x="0" y="0" width="35.0001" height="35" filterUnits="userSpaceOnUse" color-interpolation-filters="sRGB">
<feFlood flood-opacity="0" result="BackgroundImageFix"/>
<feColorMatrix in="SourceAlpha" type="matrix" values="0 0 0 0 0 0 0 0 0 0 0 0 0 0 0 0 0 0 127 0" result="hardAlpha"/>
<feOffset dy="4"/>
<feGaussianBlur stdDeviation="2"/>
<feComposite in2="hardAlpha" operator="out"/>
<feColorMatrix type="matrix" values="0 0 0 0 0 0 0 0 0 0 0 0 0 0 0 0 0 0 0.25 0"/>
<feBlend mode="normal" in2="BackgroundImageFix" result="effect1_dropShadow_1302_310"/>
<feBlend mode="normal" in="SourceGraphic" in2="effect1_dropShadow_1302_310" result="shape"/>
</filter>
</defs>
</svg>
