<svg width="46" height="23" viewBox="0 0 46 23" fill="none" xmlns="http://www.w3.org/2000/svg">
<g filter="url(#filter0_d_1302_340)">
<path d="M26.1703 2H20.8297C20.4149 2 20 2.3872 20.0002 2.7742L20 13.2258C20 13.6128 20.4149 14 20.8297 14H26.1703C26.5854 14 27 13.6128 27 13.2258V2.7742C27 2.3872 26.5851 2 26.1703 2ZM25.7359 2.6562C25.8431 2.6562 25.9304 2.74 25.9304 2.8438C25.9304 2.9472 25.8431 3.0314 25.7359 3.0314C25.6286 3.0314 25.5417 2.9472 25.5417 2.8438C25.5418 2.81909 25.5469 2.79464 25.5566 2.77184C25.5664 2.74904 25.5808 2.72833 25.5988 2.71091C25.6168 2.69349 25.6382 2.67969 25.6617 2.6703C25.6853 2.66091 25.7105 2.65612 25.7359 2.6562ZM22.9748 2.7566H24.0252C24.0575 2.7566 24.0833 2.7982 24.0833 2.85C24.0833 2.902 24.0575 2.9442 24.0252 2.9442H22.9748C22.9429 2.9442 22.9167 2.902 22.9167 2.85C22.9167 2.7984 22.9429 2.7566 22.9748 2.7566ZM24.2292 13.2968C24.2292 13.3154 24.2254 13.3337 24.218 13.3508C24.2106 13.3679 24.1998 13.3835 24.1863 13.3965C24.1727 13.4096 24.1566 13.4199 24.139 13.4269C24.1213 13.4339 24.1024 13.4375 24.0833 13.4374H22.9167C22.8976 13.4375 22.8787 13.4339 22.861 13.4269C22.8434 13.4199 22.8273 13.4096 22.8137 13.3965C22.8002 13.3835 22.7894 13.3679 22.782 13.3508C22.7746 13.3337 22.7708 13.3154 22.7708 13.2968V13.0156C22.7708 12.9378 22.836 12.875 22.9167 12.875H24.0833C24.164 12.875 24.2292 12.9378 24.2292 13.0156V13.2968ZM26.4167 12.5H20.5833V3.5H26.4165V12.5H26.4167Z" fill="white"/>
<path d="M21.1516 4.9062H21.7949C21.8161 4.90625 21.837 4.90225 21.8565 4.89444C21.876 4.88662 21.8938 4.87514 21.9088 4.86065C21.9237 4.84615 21.9356 4.82894 21.9437 4.80999C21.9518 4.79103 21.9559 4.77072 21.9559 4.7502V4.1252C21.9559 4.08372 21.939 4.04394 21.9088 4.0146C21.8786 3.98527 21.8376 3.9688 21.7949 3.9688H21.1516C21.1304 3.9688 21.1095 3.97284 21.09 3.98071C21.0705 3.98857 21.0528 4.0001 21.0379 4.01463C21.0229 4.02916 21.0111 4.0464 21.0031 4.06537C20.995 4.08435 20.9909 4.10468 20.991 4.1252V4.7502C20.991 4.8364 21.0628 4.9062 21.1516 4.9062Z" fill="white"/>
<path d="M22.5025 4.9062H23.1459C23.167 4.90625 23.1879 4.90225 23.2075 4.89444C23.227 4.88662 23.2448 4.87514 23.2597 4.86065C23.2747 4.84615 23.2865 4.82894 23.2946 4.80999C23.3027 4.79103 23.3069 4.77072 23.3069 4.7502V4.1252C23.3069 4.08372 23.2899 4.04394 23.2597 4.0146C23.2295 3.98527 23.1886 3.9688 23.1459 3.9688H22.5025C22.4814 3.9688 22.4605 3.97284 22.441 3.98071C22.4214 3.98857 22.4037 4.0001 22.3888 4.01463C22.3739 4.02916 22.3621 4.0464 22.354 4.06537C22.346 4.08435 22.3419 4.10468 22.3419 4.1252V4.7502C22.3419 4.8364 22.414 4.9062 22.5025 4.9062Z" fill="white"/>
<path d="M23.8537 4.9062H24.4971C24.5182 4.90625 24.5391 4.90225 24.5587 4.89444C24.5782 4.88662 24.5959 4.87514 24.6109 4.86065C24.6259 4.84615 24.6377 4.82894 24.6458 4.80999C24.6539 4.79103 24.6581 4.77072 24.6581 4.7502V4.1252C24.6581 4.08372 24.6411 4.04394 24.6109 4.0146C24.5807 3.98527 24.5398 3.9688 24.4971 3.9688H23.8537C23.8326 3.9688 23.8117 3.97284 23.7922 3.98071C23.7726 3.98857 23.7549 4.0001 23.74 4.01463C23.7251 4.02916 23.7133 4.0464 23.7052 4.06537C23.6972 4.08435 23.6931 4.10468 23.6931 4.1252V4.7502C23.6931 4.8364 23.765 4.9062 23.8537 4.9062Z" fill="white"/>
<path d="M25.2047 4.9062H25.848C25.8692 4.90625 25.8901 4.90225 25.9096 4.89444C25.9292 4.88662 25.9469 4.87514 25.9619 4.86065C25.9768 4.84615 25.9887 4.82894 25.9968 4.80999C26.0049 4.79103 26.009 4.77072 26.009 4.7502V4.1252C26.009 4.08372 25.9921 4.04394 25.9619 4.0146C25.9317 3.98527 25.8907 3.9688 25.848 3.9688H25.2047C25.1835 3.9688 25.1626 3.97284 25.1431 3.98071C25.1236 3.98857 25.1059 4.0001 25.091 4.01463C25.076 4.02916 25.0642 4.0464 25.0562 4.06537C25.0481 4.08435 25.044 4.10468 25.0441 4.1252V4.7502C25.0441 4.8364 25.1161 4.9062 25.2047 4.9062Z" fill="white"/>
<path d="M21.1516 12.125H21.7949C21.8161 12.125 21.837 12.121 21.8565 12.1132C21.876 12.1054 21.8938 12.0939 21.9088 12.0794C21.9237 12.065 21.9356 12.0477 21.9437 12.0288C21.9518 12.0098 21.9559 11.9895 21.9559 11.969V11.3438C21.9559 11.3233 21.9518 11.3029 21.9437 11.284C21.9356 11.265 21.9237 11.2478 21.9088 11.2333C21.8938 11.2188 21.8761 11.2073 21.8565 11.1994C21.837 11.1916 21.8161 11.1876 21.7949 11.1876H21.1516C21.1304 11.1876 21.1095 11.1916 21.0901 11.1995C21.0706 11.2073 21.0528 11.2188 21.0379 11.2334C21.023 11.2479 21.0112 11.2651 21.0031 11.284C20.9951 11.303 20.9909 11.3233 20.991 11.3438V11.969C20.991 12.055 21.0628 12.125 21.1516 12.125Z" fill="white"/>
<path d="M22.5025 12.125H23.1459C23.167 12.125 23.1879 12.121 23.2075 12.1132C23.227 12.1054 23.2448 12.0939 23.2597 12.0794C23.2747 12.065 23.2865 12.0477 23.2946 12.0288C23.3027 12.0098 23.3069 11.9895 23.3069 11.969V11.3438C23.3069 11.3233 23.3027 11.3029 23.2946 11.284C23.2865 11.265 23.2747 11.2478 23.2597 11.2333C23.2448 11.2188 23.227 11.2073 23.2075 11.1994C23.188 11.1916 23.167 11.1876 23.1459 11.1876H22.5025C22.4814 11.1876 22.4605 11.1916 22.441 11.1995C22.4215 11.2073 22.4038 11.2188 22.3889 11.2334C22.374 11.2479 22.3621 11.2651 22.3541 11.284C22.346 11.303 22.3419 11.3233 22.3419 11.3438V11.969C22.3419 12.055 22.414 12.125 22.5025 12.125Z" fill="white"/>
<path d="M23.8537 12.125H24.4971C24.5182 12.125 24.5391 12.121 24.5587 12.1132C24.5782 12.1054 24.5959 12.0939 24.6109 12.0794C24.6259 12.065 24.6377 12.0477 24.6458 12.0288C24.6539 12.0098 24.6581 11.9895 24.6581 11.969V11.3438C24.6581 11.3233 24.6539 11.3029 24.6458 11.284C24.6377 11.265 24.6259 11.2478 24.6109 11.2333C24.596 11.2188 24.5782 11.2073 24.5587 11.1994C24.5391 11.1916 24.5182 11.1876 24.4971 11.1876H23.8537C23.8326 11.1876 23.8117 11.1916 23.7922 11.1995C23.7727 11.2073 23.755 11.2188 23.7401 11.2334C23.7252 11.2479 23.7133 11.2651 23.7053 11.284C23.6972 11.303 23.6931 11.3233 23.6931 11.3438V11.969C23.6931 12.055 23.765 12.125 23.8537 12.125Z" fill="white"/>
<path d="M25.2047 12.125H25.848C25.8692 12.125 25.8901 12.121 25.9096 12.1132C25.9292 12.1054 25.9469 12.0939 25.9619 12.0794C25.9768 12.065 25.9887 12.0477 25.9968 12.0288C26.0049 12.0098 26.009 11.9895 26.009 11.969V11.3438C26.009 11.3233 26.0049 11.3029 25.9968 11.284C25.9887 11.265 25.9768 11.2478 25.9619 11.2333C25.9469 11.2188 25.9292 11.2073 25.9096 11.1994C25.8901 11.1916 25.8692 11.1876 25.848 11.1876H25.2047C25.1835 11.1876 25.1627 11.1916 25.1432 11.1995C25.1237 11.2073 25.1059 11.2188 25.091 11.2334C25.0761 11.2479 25.0643 11.2651 25.0562 11.284C25.0482 11.303 25.044 11.3233 25.0441 11.3438V11.969C25.0441 12.055 25.1161 12.125 25.2047 12.125Z" fill="white"/>
<path d="M21.1516 8.5156H21.7949C21.8161 8.51565 21.837 8.51166 21.8565 8.50384C21.876 8.49602 21.8938 8.48454 21.9088 8.47005C21.9237 8.45556 21.9356 8.43835 21.9437 8.41939C21.9518 8.40044 21.9559 8.38012 21.9559 8.3596V7.7344C21.9559 7.71387 21.9518 7.69354 21.9437 7.67458C21.9356 7.65562 21.9237 7.63839 21.9088 7.62388C21.8938 7.60937 21.8761 7.59787 21.8565 7.59003C21.837 7.5822 21.8161 7.57818 21.7949 7.5782H21.1516C21.1304 7.5782 21.1095 7.58224 21.0901 7.5901C21.0706 7.59795 21.0528 7.60946 21.0379 7.62396C21.023 7.63847 21.0112 7.65569 21.0031 7.67464C20.9951 7.69359 20.9909 7.7139 20.991 7.7344V8.3596C20.991 8.4458 21.0628 8.5156 21.1516 8.5156Z" fill="white"/>
<path d="M22.5025 8.5156H23.1459C23.167 8.51565 23.1879 8.51166 23.2075 8.50384C23.227 8.49602 23.2448 8.48454 23.2597 8.47005C23.2747 8.45556 23.2865 8.43835 23.2946 8.41939C23.3027 8.40044 23.3069 8.38012 23.3069 8.3596V7.7344C23.3069 7.71387 23.3027 7.69354 23.2946 7.67458C23.2865 7.65562 23.2747 7.63839 23.2597 7.62388C23.2448 7.60937 23.227 7.59787 23.2075 7.59003C23.188 7.5822 23.167 7.57818 23.1459 7.5782H22.5025C22.4814 7.5782 22.4605 7.58224 22.441 7.5901C22.4215 7.59795 22.4038 7.60946 22.3889 7.62396C22.374 7.63847 22.3621 7.65569 22.3541 7.67464C22.346 7.69359 22.3419 7.7139 22.3419 7.7344V8.3596C22.3419 8.4458 22.414 8.5156 22.5025 8.5156Z" fill="white"/>
<path d="M23.8537 8.5156H24.4971C24.5182 8.51565 24.5391 8.51166 24.5587 8.50384C24.5782 8.49602 24.5959 8.48454 24.6109 8.47005C24.6259 8.45556 24.6377 8.43835 24.6458 8.41939C24.6539 8.40044 24.6581 8.38012 24.6581 8.3596V7.7344C24.6581 7.71387 24.6539 7.69354 24.6458 7.67458C24.6377 7.65562 24.6259 7.63839 24.6109 7.62388C24.596 7.60937 24.5782 7.59787 24.5587 7.59003C24.5391 7.5822 24.5182 7.57818 24.4971 7.5782H23.8537C23.8326 7.5782 23.8117 7.58224 23.7922 7.5901C23.7727 7.59795 23.755 7.60946 23.7401 7.62396C23.7252 7.63847 23.7133 7.65569 23.7053 7.67464C23.6972 7.69359 23.6931 7.7139 23.6931 7.7344V8.3596C23.6931 8.4458 23.765 8.5156 23.8537 8.5156Z" fill="white"/>
<path d="M21.1516 7.3126H21.7949C21.8841 7.3126 21.9559 7.2426 21.9559 7.1564V6.5316C21.9559 6.49012 21.939 6.45034 21.9088 6.42101C21.8786 6.39168 21.8376 6.3752 21.7949 6.3752H21.1516C21.1304 6.3752 21.1095 6.37925 21.09 6.38711C21.0705 6.39498 21.0528 6.4065 21.0379 6.42103C21.0229 6.43556 21.0111 6.4528 21.0031 6.47178C20.995 6.49075 20.9909 6.51108 20.991 6.5316V7.1564C20.9909 7.1769 20.9951 7.19721 21.0031 7.21616C21.0112 7.23511 21.023 7.25233 21.0379 7.26684C21.0528 7.28134 21.0706 7.29285 21.0901 7.3007C21.1096 7.30856 21.1304 7.3126 21.1516 7.3126Z" fill="white"/>
<path d="M22.5025 7.3126H23.1459C23.235 7.3126 23.3069 7.2426 23.3069 7.1564V6.5316C23.3069 6.49012 23.2899 6.45034 23.2597 6.42101C23.2295 6.39168 23.1886 6.3752 23.1459 6.3752H22.5025C22.4814 6.3752 22.4605 6.37925 22.441 6.38711C22.4214 6.39498 22.4037 6.4065 22.3888 6.42103C22.3739 6.43556 22.3621 6.4528 22.354 6.47178C22.346 6.49075 22.3419 6.51108 22.3419 6.5316V7.1564C22.3419 7.2426 22.414 7.3126 22.5025 7.3126Z" fill="white"/>
<path d="M23.8537 7.3126H24.4971C24.5862 7.3126 24.6581 7.2426 24.6581 7.1564V6.5316C24.6581 6.49012 24.6411 6.45034 24.6109 6.42101C24.5807 6.39168 24.5398 6.3752 24.4971 6.3752H23.8537C23.8326 6.3752 23.8117 6.37925 23.7922 6.38711C23.7726 6.39498 23.7549 6.4065 23.74 6.42103C23.7251 6.43556 23.7133 6.4528 23.7052 6.47178C23.6972 6.49075 23.6931 6.51108 23.6931 6.5316V7.1564C23.6931 7.1769 23.6972 7.19721 23.7053 7.21616C23.7133 7.23511 23.7252 7.25233 23.7401 7.26684C23.755 7.28134 23.7727 7.29285 23.7922 7.3007C23.8117 7.30856 23.8326 7.3126 23.8537 7.3126Z" fill="white"/>
<path d="M25.2047 7.3126H25.848C25.9372 7.3126 26.009 7.2426 26.009 7.1564V6.5316C26.009 6.49012 25.9921 6.45034 25.9619 6.42101C25.9317 6.39168 25.8907 6.3752 25.848 6.3752H25.2047C25.1835 6.3752 25.1626 6.37925 25.1431 6.38711C25.1236 6.39498 25.1059 6.4065 25.091 6.42103C25.076 6.43556 25.0642 6.4528 25.0562 6.47178C25.0481 6.49075 25.044 6.51108 25.0441 6.5316V7.1564C25.0441 7.2426 25.1161 7.3126 25.2047 7.3126Z" fill="white"/>
<path d="M21.1516 6.10961H21.7949C21.8841 6.10961 21.9559 6.03961 21.9559 5.95321V5.32821C21.9559 5.24221 21.8839 5.17221 21.7949 5.17221H21.1516C21.109 5.17221 21.0681 5.18865 21.038 5.2179C21.0079 5.24716 20.991 5.28684 20.991 5.32821V5.95321C20.9909 5.97373 20.995 5.99406 21.0031 6.01303C21.0111 6.03201 21.0229 6.04925 21.0379 6.06378C21.0528 6.07831 21.0705 6.08983 21.09 6.0977C21.1095 6.10556 21.1304 6.10961 21.1516 6.10961Z" fill="white"/>
<path d="M22.5025 6.10961H23.1459C23.235 6.10961 23.3069 6.03961 23.3069 5.95321V5.32821C23.3069 5.24221 23.2348 5.17221 23.1459 5.17221H22.5025C22.4599 5.17221 22.4191 5.18865 22.389 5.2179C22.3588 5.24716 22.3419 5.28684 22.3419 5.32821V5.95321C22.3419 6.03961 22.414 6.10961 22.5025 6.10961Z" fill="white"/>
<path d="M23.8537 6.10961H24.4971C24.5862 6.10961 24.6581 6.03961 24.6581 5.95321V5.32821C24.6581 5.24221 24.586 5.17221 24.4971 5.17221H23.8537C23.8111 5.17221 23.7703 5.18865 23.7402 5.2179C23.71 5.24716 23.6931 5.28684 23.6931 5.32821V5.95321C23.6931 5.97373 23.6972 5.99406 23.7052 6.01303C23.7133 6.03201 23.7251 6.04925 23.74 6.06378C23.7549 6.07831 23.7726 6.08983 23.7922 6.0977C23.8117 6.10556 23.8326 6.10961 23.8537 6.10961Z" fill="white"/>
<path d="M25.2047 6.10961H25.848C25.9372 6.10961 26.009 6.03961 26.009 5.95321V5.32821C26.009 5.24221 25.937 5.17221 25.848 5.17221H25.2047C25.1621 5.17221 25.1212 5.18865 25.0911 5.2179C25.061 5.24716 25.0441 5.28684 25.0441 5.32821V5.95321C25.0441 6.03961 25.1161 6.10961 25.2047 6.10961Z" fill="white"/>
<path d="M16 14.0195C16 14.1366 15.9473 14.2439 15.8418 14.3415C15.7363 14.439 15.5742 14.5195 15.3555 14.5829C15.1367 14.6463 14.9121 14.7049 14.6816 14.7585C14.4512 14.8122 14.1562 14.8537 13.7969 14.8829C13.4375 14.9122 13.125 14.9341 12.8594 14.9488C12.5938 14.9634 12.252 14.9756 11.834 14.9854C11.416 14.9951 11.0996 15 10.8848 15H9.11523L8.16602 14.9854L7.14062 14.9488L6.20312 14.8829L5.31836 14.7585L4.64453 14.5829L4.1582 14.3415L4 14.0195C4.01562 13.161 4.44531 12.4024 5.28906 11.7439C6.13281 11.0854 7.20312 10.6488 8.5 10.4341V9.95122C8.09375 9.72683 7.74219 9.40976 7.44531 9C7.14844 8.59024 6.91406 8.10976 6.74219 7.55854C6.57031 7.00732 6.44531 6.41707 6.36719 5.78781C6.28906 5.15854 6.25 4.47805 6.25 3.74634C6.25 3.12195 6.34766 2.56585 6.54297 2.07805C6.73828 1.59024 7.00781 1.19756 7.35156 0.9C7.69531 0.602439 8.08984 0.378049 8.53516 0.226829C8.98047 0.0756098 9.46875 0 10 0C10.5312 0 11.0195 0.0756098 11.4648 0.226829C11.9102 0.378049 12.3047 0.602439 12.6484 0.9C12.9922 1.19756 13.2617 1.59024 13.457 2.07805C13.6523 2.56585 13.75 3.12195 13.75 3.74634C13.75 7.16098 13 9.23902 11.5 9.98049V10.4341C12.7969 10.6488 13.8672 11.0854 14.7109 11.7439C15.5547 12.4024 15.9844 13.161 16 14.0195Z" fill="white"/>
<path d="M42 14.0195C42 14.1366 41.9473 14.2439 41.8418 14.3415C41.7363 14.439 41.5742 14.5195 41.3555 14.5829C41.1367 14.6463 40.9121 14.7049 40.6816 14.7585C40.4512 14.8122 40.1562 14.8537 39.7969 14.8829C39.4375 14.9122 39.125 14.9341 38.8594 14.9488C38.5938 14.9634 38.252 14.9756 37.834 14.9854C37.416 14.9951 37.0996 15 36.8848 15H35.1152L34.166 14.9854L33.1406 14.9488L32.2031 14.8829L31.3184 14.7585L30.6445 14.5829L30.1582 14.3415L30 14.0195C30.0156 13.161 30.4453 12.4024 31.2891 11.7439C32.1328 11.0854 33.2031 10.6488 34.5 10.4341V9.95122C34.0938 9.72683 33.7422 9.40976 33.4453 9C33.1484 8.59024 32.9141 8.10976 32.7422 7.55854C32.5703 7.00732 32.4453 6.41707 32.3672 5.78781C32.2891 5.15854 32.25 4.47805 32.25 3.74634C32.25 3.12195 32.3477 2.56585 32.543 2.07805C32.7383 1.59024 33.0078 1.19756 33.3516 0.9C33.6953 0.602439 34.0898 0.378049 34.5352 0.226829C34.9805 0.0756098 35.4688 0 36 0C36.5312 0 37.0195 0.0756098 37.4648 0.226829C37.9102 0.378049 38.3047 0.602439 38.6484 0.9C38.9922 1.19756 39.2617 1.59024 39.457 2.07805C39.6523 2.56585 39.75 3.12195 39.75 3.74634C39.75 7.16098 39 9.23902 37.5 9.98049V10.4341C38.7969 10.6488 39.8672 11.0854 40.7109 11.7439C41.5547 12.4024 41.9844 13.161 42 14.0195Z" fill="white"/>
<circle cx="16.5" cy="8.5" r="0.5" fill="white"/>
<circle cx="18.5" cy="8.5" r="0.5" fill="white"/>
<circle cx="28.5" cy="8.5" r="0.5" fill="white"/>
<circle cx="30.5" cy="8.5" r="0.5" fill="white"/>
</g>
<defs>
<filter id="filter0_d_1302_340" x="0" y="0" width="46" height="23" filterUnits="userSpaceOnUse" color-interpolation-filters="sRGB">
<feFlood flood-opacity="0" result="BackgroundImageFix"/>
<feColorMatrix in="SourceAlpha" type="matrix" values="0 0 0 0 0 0 0 0 0 0 0 0 0 0 0 0 0 0 127 0" result="hardAlpha"/>
<feOffset dy="4"/>
<feGaussianBlur stdDeviation="2"/>
<feComposite in2="hardAlpha" operator="out"/>
<feColorMatrix type="matrix" values="0 0 0 0 0 0 0 0 0 0 0 0 0 0 0 0 0 0 0.25 0"/>
<feBlend mode="normal" in2="BackgroundImageFix" result="effect1_dropShadow_1302_340"/>
<feBlend mode="normal" in="SourceGraphic" in2="effect1_dropShadow_1302_340" result="shape"/>
</filter>
</defs>
</svg>
