<svg width="46" height="23" viewBox="0 0 46 23" fill="none" xmlns="http://www.w3.org/2000/svg">
<g filter="url(#filter0_d_1083_408)">
<path fill-rule="evenodd" clip-rule="evenodd" d="M23.2542 6.684C23.2585 6.68909 23.2619 6.69504 23.264 6.70151C23.2662 6.70799 23.2672 6.71486 23.2668 6.72173C23.2665 6.72861 23.2649 6.73534 23.2621 6.74155C23.2594 6.74776 23.2555 6.75332 23.2507 6.75791C23.2459 6.7625 23.2403 6.76602 23.2342 6.76829C23.2281 6.77055 23.2217 6.77151 23.2153 6.77109C23.2088 6.77068 23.2025 6.76891 23.1968 6.76589C23.191 6.76287 23.1858 6.75865 23.1816 6.75348C23.1487 6.71417 23.1054 6.68646 23.0575 6.67401C23.0095 6.66157 22.9592 6.66498 22.9131 6.6838C22.867 6.70262 22.8273 6.73595 22.7994 6.7794C22.7714 6.82284 22.7564 6.87434 22.7564 6.92708H22.8538C22.8635 6.92708 22.8729 6.93014 22.8809 6.93586C22.8889 6.94159 22.8952 6.94972 22.8988 6.95924C22.9025 6.96875 22.9035 6.97922 22.9016 6.98932C22.8997 6.99943 22.8951 7.00871 22.8883 7.01599L22.7421 7.17224C22.733 7.18201 22.7206 7.18749 22.7077 7.18749C22.6948 7.18749 22.6824 7.18201 22.6732 7.17224L22.5271 7.01599C22.5203 7.00871 22.5156 6.99943 22.5138 6.98932C22.5119 6.97922 22.5128 6.96875 22.5165 6.95924C22.5202 6.94972 22.5265 6.94159 22.5345 6.93586C22.5425 6.93014 22.5519 6.92708 22.5615 6.92708H22.659C22.659 6.85325 22.6799 6.78115 22.7191 6.72034C22.7583 6.65952 22.8138 6.61285 22.8783 6.58651C22.9428 6.56016 23.0133 6.55537 23.0804 6.57278C23.1475 6.59019 23.2081 6.62897 23.2542 6.684ZM23.4729 7.04651C23.4797 7.05379 23.4844 7.06307 23.4862 7.07318C23.4881 7.08328 23.4872 7.09375 23.4835 7.10326C23.4798 7.11278 23.4735 7.12091 23.4655 7.12664C23.4575 7.13236 23.4481 7.13542 23.4385 7.13542H23.341V7.13552C23.341 7.20935 23.32 7.28143 23.2809 7.34223C23.2417 7.40303 23.1862 7.44968 23.1217 7.47601C23.0571 7.50235 22.9867 7.50713 22.9196 7.48971C22.8525 7.4723 22.7919 7.43352 22.7458 7.3785C22.7415 7.37341 22.7381 7.36746 22.736 7.36099C22.7338 7.35451 22.7328 7.34764 22.7332 7.34077C22.7335 7.33389 22.7351 7.32716 22.7379 7.32095C22.7406 7.31474 22.7445 7.30918 22.7493 7.30459C22.7541 7.3 22.7597 7.29648 22.7658 7.29421C22.7719 7.29195 22.7783 7.29099 22.7847 7.29141C22.7912 7.29182 22.7974 7.29359 22.8032 7.29661C22.809 7.29963 22.8142 7.30385 22.8184 7.30902C22.8513 7.34833 22.8946 7.37604 22.9425 7.38849C22.9905 7.40093 23.0408 7.39752 23.0869 7.3787C23.133 7.35988 23.1727 7.32655 23.2006 7.2831C23.2286 7.23966 23.2436 7.18816 23.2436 7.13542H23.1462C23.1365 7.13542 23.1271 7.13236 23.1191 7.12664C23.1111 7.12091 23.1048 7.11278 23.1012 7.10326C23.0975 7.09375 23.0965 7.08328 23.0984 7.07318C23.1003 7.06307 23.1049 7.05379 23.1117 7.04651L23.2579 6.89026C23.267 6.88049 23.2794 6.87501 23.2923 6.87501C23.3052 6.87501 23.3176 6.88049 23.3268 6.89026L23.4729 7.04651Z" fill="white"/>
<path d="M24.605 3.73722C24.1771 3.32045 23.6182 3.06818 23.0061 3.06818C22.3939 3.06818 21.835 3.32045 21.4064 3.73807C21.3945 3.75001 21.3873 3.76663 21.3861 3.78442C21.385 3.80222 21.3901 3.81981 21.4003 3.83352L21.6744 4.19915C21.6965 4.22813 21.7353 4.23153 21.7612 4.20682C22.0931 3.87955 22.5287 3.68182 23.0061 3.68182C23.4835 3.68182 23.919 3.87955 24.251 4.20597C24.2769 4.23068 24.3157 4.22727 24.3378 4.1983L24.6119 3.83267C24.6332 3.80455 24.6302 3.76193 24.605 3.73722ZM25.4989 2.54318C24.8236 1.91335 23.9548 1.53409 23.0061 1.53409C22.0574 1.53409 21.1886 1.91335 20.5125 2.54318C20.5001 2.55486 20.4924 2.57154 20.4909 2.58958C20.4895 2.60762 20.4945 2.62556 20.5049 2.63949L20.779 3.00511C20.8003 3.03409 20.8391 3.0375 20.8642 3.01364C21.4452 2.4733 22.1921 2.14773 23.0061 2.14773C23.82 2.14773 24.567 2.4733 25.1472 3.01364C25.173 3.0375 25.2111 3.03409 25.2324 3.00511L25.5065 2.63949C25.5279 2.61051 25.5248 2.56705 25.4989 2.54318ZM26.3875 1.35852C25.4631 0.509659 24.2799 0 22.9908 0C21.7102 0 20.5345 0.502841 19.6125 1.34148C19.6061 1.34717 19.6009 1.35423 19.597 1.36224C19.5932 1.37024 19.5908 1.37903 19.59 1.38808C19.5892 1.39714 19.5901 1.40627 19.5925 1.41495C19.5949 1.42364 19.5989 1.43169 19.6041 1.43864L19.8782 1.80426C19.8995 1.83239 19.9376 1.83665 19.9627 1.81364C20.7904 1.06278 21.8434 0.613636 22.9908 0.613636C24.1467 0.613636 25.2065 1.0696 26.0365 1.82983C26.0624 1.85369 26.1004 1.84943 26.1218 1.82045L26.3959 1.45483C26.4179 1.42585 26.4141 1.38239 26.3875 1.35852ZM22.5112 5.07955C22.5112 5.22421 22.5625 5.36295 22.6539 5.46524C22.7453 5.56753 22.8692 5.625 22.9985 5.625C23.1277 5.625 23.2517 5.56753 23.343 5.46524C23.4344 5.36295 23.4858 5.22421 23.4858 5.07955C23.4858 4.93488 23.4344 4.79614 23.343 4.69385C23.2517 4.59156 23.1277 4.53409 22.9985 4.53409C22.8692 4.53409 22.7453 4.59156 22.6539 4.69385C22.5625 4.79614 22.5112 4.93488 22.5112 5.07955Z" fill="white"/>
<path d="M42 14.0808C42 14.1905 41.9487 14.2912 41.8459 14.3826C41.7431 14.4741 41.5852 14.5495 41.372 14.609C41.1589 14.6684 40.9401 14.7233 40.7155 14.7736C40.4909 14.8239 40.2036 14.8628 39.8534 14.8902C39.5033 14.9177 39.1988 14.9383 38.94 14.952C38.6811 14.9657 38.3481 14.9771 37.9409 14.9863C37.5336 14.9954 37.2253 15 37.016 15H35.2918L34.3669 14.9863L33.3678 14.952L32.4544 14.8902L31.5923 14.7736L30.9357 14.609L30.4619 14.3826L30.3077 14.0808C30.323 13.2759 30.7416 12.5648 31.5637 11.9474C32.3859 11.33 33.4287 10.9207 34.6924 10.7195V10.2668C34.2965 10.0564 33.954 9.75915 33.6647 9.375C33.3754 8.99085 33.1471 8.5404 32.9796 8.02363C32.8121 7.50686 32.6904 6.95351 32.6142 6.36357C32.5381 5.77363 32.5 5.13567 32.5 4.4497C32.5 3.86433 32.5952 3.34299 32.7855 2.88567C32.9758 2.42835 33.2384 2.06021 33.5734 1.78125C33.9083 1.50229 34.2927 1.29192 34.7266 1.15015C35.1605 1.00838 35.6363 0.9375 36.1539 0.9375C36.6715 0.9375 37.1473 1.00838 37.5812 1.15015C38.0151 1.29192 38.3995 1.50229 38.7344 1.78125C39.0694 2.06021 39.332 2.42835 39.5223 2.88567C39.7126 3.34299 39.8077 3.86433 39.8077 4.4497C39.8077 7.65091 39.077 9.59908 37.6154 10.2942V10.7195C38.8791 10.9207 39.9219 11.33 40.744 11.9474C41.5662 12.5648 41.9848 13.2759 42 14.0808Z" fill="white"/>
<path d="M15.6923 14.0808C15.6923 14.1905 15.6409 14.2912 15.5382 14.3826C15.4354 14.4741 15.2774 14.5495 15.0643 14.609C14.8512 14.6684 14.6323 14.7233 14.4078 14.7736C14.1832 14.8239 13.8958 14.8628 13.5457 14.8902C13.1955 14.9177 12.891 14.9383 12.6322 14.952C12.3734 14.9657 12.0404 14.9771 11.6331 14.9863C11.2259 14.9954 10.9176 15 10.7082 15H8.98407L8.05919 14.9863L7.0601 14.952L6.14663 14.8902L5.28456 14.7736L4.628 14.609L4.15415 14.3826L4 14.0808C4.01522 13.2759 4.43389 12.5648 5.25601 11.9474C6.07812 11.33 7.12099 10.9207 8.38462 10.7195V10.2668C7.98878 10.0564 7.64623 9.75915 7.35697 9.375C7.06771 8.99085 6.83934 8.5404 6.67188 8.02363C6.50441 7.50686 6.38261 6.95351 6.30649 6.36357C6.23037 5.77363 6.19231 5.13567 6.19231 4.4497C6.19231 3.86433 6.28746 3.34299 6.47776 2.88567C6.66807 2.42835 6.93069 2.06021 7.26562 1.78125C7.60056 1.50229 7.98498 1.29192 8.41887 1.15015C8.85276 1.00838 9.32853 0.9375 9.84615 0.9375C10.3638 0.9375 10.8395 1.00838 11.2734 1.15015C11.7073 1.29192 12.0917 1.50229 12.4267 1.78125C12.7616 2.06021 13.0242 2.42835 13.2145 2.88567C13.4048 3.34299 13.5 3.86433 13.5 4.4497C13.5 7.65091 12.7692 9.59908 11.3077 10.2942V10.7195C12.5713 10.9207 13.6142 11.33 14.4363 11.9474C15.2584 12.5648 15.6771 13.2759 15.6923 14.0808Z" fill="white"/>
<path d="M23.3288 9.72833L24.0013 10.3071L23.3292 10.8854L23.3288 9.72833ZM23.3288 13.2712L24.0013 12.6925L23.3292 12.1141L23.3288 13.2712ZM22.6108 11.4998L21.157 10.2454L21.5784 9.8829L22.7365 10.88V8.49048L24.8427 10.3029L23.452 11.4998L24.843 12.6969L22.7367 14.5094V12.1197L21.5783 13.117L21.1569 12.7542L22.6108 11.4998ZM23.0003 15C24.7763 15 26 14.2739 26 11.4999C26 8.72599 24.7763 8 23.0003 8C21.2244 8 20 8.72611 20 11.4999C20 14.2739 21.2243 15 23.0003 15Z" fill="white"/>
<ellipse cx="15.2051" cy="7.03125" rx="0.487179" ry="0.46875" fill="white"/>
<ellipse cx="26.8975" cy="7.03125" rx="0.487179" ry="0.46875" fill="white"/>
<ellipse cx="28.8462" cy="7.03125" rx="0.487179" ry="0.46875" fill="white"/>
<ellipse cx="30.7949" cy="7.03125" rx="0.487179" ry="0.46875" fill="white"/>
<ellipse cx="17.1539" cy="7.03125" rx="0.487179" ry="0.46875" fill="white"/>
<ellipse cx="19.1025" cy="7.03125" rx="0.487179" ry="0.46875" fill="white"/>
</g>
<defs>
<filter id="filter0_d_1083_408" x="0" y="0" width="46" height="23" filterUnits="userSpaceOnUse" color-interpolation-filters="sRGB">
<feFlood flood-opacity="0" result="BackgroundImageFix"/>
<feColorMatrix in="SourceAlpha" type="matrix" values="0 0 0 0 0 0 0 0 0 0 0 0 0 0 0 0 0 0 127 0" result="hardAlpha"/>
<feOffset dy="4"/>
<feGaussianBlur stdDeviation="2"/>
<feComposite in2="hardAlpha" operator="out"/>
<feColorMatrix type="matrix" values="0 0 0 0 0 0 0 0 0 0 0 0 0 0 0 0 0 0 0.25 0"/>
<feBlend mode="normal" in2="BackgroundImageFix" result="effect1_dropShadow_1083_408"/>
<feBlend mode="normal" in="SourceGraphic" in2="effect1_dropShadow_1083_408" result="shape"/>
</filter>
</defs>
</svg>
