<svg width="9" height="10" viewBox="0 0 9 10" fill="none" xmlns="http://www.w3.org/2000/svg">
<path d="M8.19251 4.69231H4.80789V1.30769C4.80789 1.22609 4.77548 1.14782 4.71777 1.09012C4.66007 1.03242 4.58181 1 4.5002 1C4.4186 1 4.34033 1.03242 4.28263 1.09012C4.22493 1.14782 4.19251 1.22609 4.19251 1.30769V4.69231H0.807894C0.726289 4.69231 0.648026 4.72473 0.590323 4.78243C0.532619 4.84013 0.500202 4.9184 0.500202 5C0.498683 5.03999 0.505754 5.07984 0.520939 5.11686C0.536123 5.15389 0.559067 5.18723 0.588225 5.21464C0.617383 5.24205 0.652078 5.26289 0.689971 5.27576C0.727864 5.28862 0.768075 5.29322 0.807894 5.28923H4.19251V8.69231C4.19251 8.77391 4.22493 8.85218 4.28263 8.90988C4.34033 8.96758 4.4186 9 4.5002 9C4.58181 9 4.66007 8.96758 4.71777 8.90988C4.77548 8.85218 4.80789 8.77391 4.80789 8.69231V5.30769H8.19251C8.27412 5.30769 8.35238 5.27528 8.41008 5.21757C8.46778 5.15987 8.5002 5.08161 8.5002 5C8.5002 4.9184 8.46778 4.84013 8.41008 4.78243C8.35238 4.72473 8.27412 4.69231 8.19251 4.69231Z" fill="white" stroke="white" stroke-width="0.5"/>
</svg>
