<svg width="12" height="16" viewBox="0 0 12 16" fill="none" xmlns="http://www.w3.org/2000/svg">
<path d="M0 2C0 1.46957 0.210714 0.960859 0.585786 0.585786C0.960859 0.210714 1.46957 0 2 0H10C10.5304 0 11.0391 0.210714 11.4142 0.585786C11.7893 0.960859 12 1.46957 12 2V13C12 13.2652 11.8946 13.5196 11.7071 13.7071C11.5196 13.8946 11.2652 14 11 14H1C1 14.2652 1.10536 14.5196 1.29289 14.7071C1.48043 14.8946 1.73478 15 2 15H11.5C11.6326 15 11.7598 15.0527 11.8536 15.1464C11.9473 15.2402 12 15.3674 12 15.5C12 15.6326 11.9473 15.7598 11.8536 15.8536C11.7598 15.9473 11.6326 16 11.5 16H2C1.46957 16 0.960859 15.7893 0.585786 15.4142C0.210714 15.0391 0 14.5304 0 14V2ZM6 11C7.06087 11 8.07828 10.5786 8.82843 9.82843C9.57857 9.07828 10 8.06087 10 7C10 5.93913 9.57857 4.92172 8.82843 4.17157C8.07828 3.42143 7.06087 3 6 3C4.93913 3 3.92172 3.42143 3.17157 4.17157C2.42143 4.92172 2 5.93913 2 7C2 8.06087 2.42143 9.07828 3.17157 9.82843C3.92172 10.5786 4.93913 11 6 11ZM5.5 5C5.63261 5 5.75979 5.05268 5.85355 5.14645C5.94732 5.24021 6 5.36739 6 5.5V7H7C7.13261 7 7.25979 7.05268 7.35355 7.14645C7.44732 7.24021 7.5 7.36739 7.5 7.5C7.5 7.63261 7.44732 7.75979 7.35355 7.85355C7.25979 7.94732 7.13261 8 7 8H5.5C5.36739 8 5.24021 7.94732 5.14645 7.85355C5.05268 7.75979 5 7.63261 5 7.5V5.5C5 5.36739 5.05268 5.24021 5.14645 5.14645C5.24021 5.05268 5.36739 5 5.5 5Z" fill="white"/>
</svg>
