<svg width="16" height="17" viewBox="0 0 16 17" fill="none" xmlns="http://www.w3.org/2000/svg">
<path d="M8.91115 0.427859C8.60454 0.152389 8.20692 0 7.79475 0C7.38257 0 6.98495 0.152389 6.67835 0.427859L0.553467 5.93134C0.379322 6.08795 0.240056 6.27942 0.144706 6.49333C0.0493555 6.70725 5.36293e-05 6.93882 0 7.17302V15.0296C0 15.4726 0.17599 15.8975 0.489255 16.2107C0.80252 16.524 1.2274 16.7 1.67042 16.7H3.89765C4.34068 16.7 4.76555 16.524 5.07882 16.2107C5.39208 15.8975 5.56807 15.4726 5.56807 15.0296V10.5751C5.56807 10.4274 5.62674 10.2858 5.73116 10.1814C5.83558 10.077 5.97721 10.0183 6.12488 10.0183H9.46573C9.6134 10.0183 9.75503 10.077 9.85945 10.1814C9.96387 10.2858 10.0225 10.4274 10.0225 10.5751V15.0296C10.0225 15.4726 10.1985 15.8975 10.5118 16.2107C10.8251 16.524 11.2499 16.7 11.693 16.7H13.9202C14.3632 16.7 14.7881 16.524 15.1014 16.2107C15.4146 15.8975 15.5906 15.4726 15.5906 15.0296V7.17302C15.5906 6.93882 15.5413 6.70725 15.4459 6.49333C15.3506 6.27942 15.2113 6.08795 15.0371 5.93134L8.91226 0.427859H8.91115Z" fill="#929CAD"/>
</svg>
