<svg width="20" height="16" viewBox="0 0 20 16" fill="none" xmlns="http://www.w3.org/2000/svg">
<path d="M19.8461 4.15138V12.9231C19.8461 13.7391 19.5219 14.5218 18.9449 15.0988C18.3679 15.6758 17.5852 16 16.7692 16H3.23073C2.41468 16 1.63205 15.6758 1.05502 15.0988C0.477983 14.5218 0.153809 13.7391 0.153809 12.9231V4.15138L9.68735 9.76123C9.78206 9.81709 9.89001 9.84655 9.99996 9.84655C10.1099 9.84655 10.2179 9.81709 10.3126 9.76123L19.8461 4.15138ZM16.7692 3.80956e-08C17.5263 -0.000119035 18.2569 0.2789 18.8211 0.78368C19.3854 1.28846 19.7438 1.98356 19.8277 2.736L9.99996 8.51692L0.17227 2.736C0.256157 1.98356 0.614515 1.28846 1.17879 0.78368C1.74306 0.2789 2.47363 -0.000119035 3.23073 3.80956e-08H16.7692Z" fill="#1648CE"/>
</svg>
