<svg width="20" height="20" viewBox="0 0 20 20" fill="none" xmlns="http://www.w3.org/2000/svg">
<path d="M7.64333 7.22222C8.20333 6.54444 9.05111 6.11111 10 6.11111C10.9489 6.11111 11.7967 6.54444 12.3567 7.22222C12.7254 7.66924 12.9593 8.21187 13.0313 8.78682C13.1033 9.36178 13.0103 9.94535 12.7632 10.4695C12.5161 10.9936 12.1251 11.4366 11.6357 11.7469C11.1464 12.0572 10.5789 12.222 9.99944 12.222C9.42 12.222 8.8525 12.0572 8.36315 11.7469C7.8738 11.4366 7.48276 10.9936 7.23566 10.4695C6.98856 9.94535 6.89557 9.36178 6.96756 8.78682C7.03955 8.21187 7.27353 7.66924 7.64222 7.22222H7.64333ZM14.1667 9.16667C14.1667 8.46445 13.9933 7.80222 13.6867 7.22222H18.3333C18.7754 7.22222 19.1993 7.39782 19.5118 7.71038C19.8244 8.02294 20 8.44686 20 8.88889V9.44444C20 11.2078 18.66 13.0133 16.3167 13.6489C16.0759 13.2163 15.7238 12.856 15.297 12.6051C14.8701 12.3543 14.384 12.2221 13.8889 12.2222H12.8333C13.2545 11.8326 13.5904 11.3599 13.8198 10.834C14.0493 10.3081 14.1674 9.74043 14.1667 9.16667ZM13.8889 13.3333C14.1079 13.3327 14.3249 13.3755 14.5274 13.459C14.7299 13.5426 14.9138 13.6653 15.0687 13.8202C15.2236 13.9751 15.3463 14.159 15.4299 14.3615C15.5134 14.564 15.5561 14.781 15.5556 15V15.5556C15.5556 17.7456 13.4889 20 10 20C6.51111 20 4.44444 17.7456 4.44444 15.5556V15C4.44386 14.781 4.48657 14.564 4.57012 14.3615C4.65367 14.159 4.77641 13.9751 4.93129 13.8202C5.08617 13.6653 5.27014 13.5426 5.47261 13.459C5.67509 13.3755 5.89208 13.3327 6.11111 13.3333H13.8889ZM0 9.44444C0 11.2078 1.34 13.0133 3.68333 13.6489C3.92415 13.2163 4.2762 12.856 4.70304 12.6051C5.12989 12.3543 5.61602 12.2221 6.11111 12.2222H7.16667C6.74552 11.8326 6.40963 11.3599 6.18016 10.834C5.95068 10.3081 5.83259 9.74043 5.83333 9.16667C5.83333 8.46445 6.00667 7.80222 6.31445 7.22222H1.66667C1.22464 7.22222 0.800716 7.39782 0.488155 7.71038C0.175595 8.02294 0 8.44686 0 8.88889V9.44444ZM8.61111 3.05556C8.61111 2.24517 8.28919 1.46798 7.71616 0.894952C7.14313 0.321924 6.36594 0 5.55556 0C4.74517 0 3.96798 0.321924 3.39495 0.894952C2.82192 1.46798 2.5 2.24517 2.5 3.05556C2.5 3.86594 2.82192 4.64313 3.39495 5.21616C3.96798 5.78919 4.74517 6.11111 5.55556 6.11111C6.36594 6.11111 7.14313 5.78919 7.71616 5.21616C8.28919 4.64313 8.61111 3.86594 8.61111 3.05556ZM17.5 3.05556C17.5 2.24517 17.1781 1.46798 16.605 0.894952C16.032 0.321924 15.2548 0 14.4444 0C13.6341 0 12.8569 0.321924 12.2838 0.894952C11.7108 1.46798 11.3889 2.24517 11.3889 3.05556C11.3889 3.86594 11.7108 4.64313 12.2838 5.21616C12.8569 5.78919 13.6341 6.11111 14.4444 6.11111C15.2548 6.11111 16.032 5.78919 16.605 5.21616C17.1781 4.64313 17.5 3.86594 17.5 3.05556Z" fill="#1648CE"/>
</svg>
