<svg width="15" height="17" viewBox="0 0 15 17" fill="none" xmlns="http://www.w3.org/2000/svg">
<path d="M7.30625 0C6.19897 0 5.13704 0.439865 4.35408 1.22283C3.57112 2.00579 3.13125 3.06772 3.13125 4.175C3.13125 5.28228 3.57112 6.34421 4.35408 7.12717C5.13704 7.91014 6.19897 8.35 7.30625 8.35C8.41353 8.35 9.47546 7.91014 10.2584 7.12717C11.0414 6.34421 11.4813 5.28228 11.4813 4.175C11.4813 3.06772 11.0414 2.00579 10.2584 1.22283C9.47546 0.439865 8.41353 0 7.30625 0ZM2.09689 9.39375C1.82201 9.39265 1.54961 9.44583 1.29532 9.55023C1.04103 9.65463 0.80985 9.8082 0.615039 10.0021C0.420228 10.1961 0.265619 10.4266 0.160076 10.6804C0.054534 10.9342 0.000135178 11.2064 0 11.4813C0 13.2462 0.869444 14.577 2.22841 15.4444C3.56649 16.2971 5.37009 16.7 7.30625 16.7C9.24241 16.7 11.046 16.2971 12.3841 15.4444C13.7431 14.5781 14.6125 13.2462 14.6125 11.4813C14.6125 10.9276 14.3926 10.3966 14.0011 10.0052C13.6096 9.61368 13.0786 9.39375 12.525 9.39375H2.09689Z" fill="#929CAD"/>
</svg>
