<svg width="8" height="12" viewBox="0 0 8 12" fill="none" xmlns="http://www.w3.org/2000/svg">
<path d="M3.67857 0C1.78771 0 0.25 1.53771 0.25 3.42857C0.25 3.54224 0.295153 3.65124 0.375526 3.73162C0.455898 3.81199 0.564907 3.85714 0.678571 3.85714C0.792236 3.85714 0.901244 3.81199 0.981617 3.73162C1.06199 3.65124 1.10714 3.54224 1.10714 3.42857C1.10714 2.01086 2.26086 0.857143 3.67857 0.857143C5.09629 0.857143 6.25 2.01086 6.25 3.42857C6.25 4.49914 5.65686 5.02543 4.9 5.67429L4.87257 5.69743C4.13629 6.32914 3.25 7.08857 3.25 8.57143V9C3.25 9.11366 3.29515 9.22267 3.37553 9.30305C3.4559 9.38342 3.56491 9.42857 3.67857 9.42857C3.79224 9.42857 3.90124 9.38342 3.98162 9.30305C4.06199 9.22267 4.10714 9.11366 4.10714 9V8.57143C4.10714 7.50086 4.70029 6.97457 5.45714 6.32571L5.48457 6.30257C6.22086 5.67 7.10714 4.91229 7.10714 3.42857C7.10714 1.53771 5.56943 0 3.67857 0ZM3.67857 12C3.84907 12 4.01258 11.9323 4.13314 11.8117C4.2537 11.6912 4.32143 11.5276 4.32143 11.3571C4.32143 11.1866 4.2537 11.0231 4.13314 10.9026C4.01258 10.782 3.84907 10.7143 3.67857 10.7143C3.50807 10.7143 3.34456 10.782 3.224 10.9026C3.10344 11.0231 3.03571 11.1866 3.03571 11.3571C3.03571 11.5276 3.10344 11.6912 3.224 11.8117C3.34456 11.9323 3.50807 12 3.67857 12Z" fill="#091F44"/>
</svg>
