<svg width="20" height="20" viewBox="0 0 20 20" fill="none" xmlns="http://www.w3.org/2000/svg">
<path d="M8.87879 0.728665C8.98194 0.509968 9.14163 0.325807 9.33979 0.19703C9.53794 0.0682519 9.76664 0 10 0C10.2334 0 10.4621 0.0682519 10.6602 0.19703C10.8584 0.325807 11.0181 0.509968 11.1212 0.728665L13.5336 5.83482L18.9297 6.65494C19.1605 6.68997 19.3774 6.79179 19.5558 6.94891C19.7341 7.10602 19.8668 7.31214 19.9389 7.54396C20.0109 7.77578 20.0195 8.02403 19.9635 8.26065C19.9075 8.49726 19.7893 8.71279 19.6222 8.88284L15.7173 12.8581L16.6398 18.4735C16.6791 18.7137 16.6534 18.9606 16.5655 19.1863C16.4776 19.412 16.3311 19.6075 16.1424 19.7507C15.9537 19.8939 15.7304 19.9791 15.4978 19.9966C15.2652 20.0142 15.0325 19.9634 14.8261 19.85L10.0012 17.199L5.17392 19.85C4.96743 19.9631 4.73477 20.0137 4.50222 19.9959C4.26968 19.9781 4.04653 19.8928 3.85798 19.7494C3.66944 19.6061 3.52303 19.4106 3.43529 19.1849C3.34756 18.9592 3.32199 18.7123 3.36149 18.4722L4.28271 12.8581L0.377849 8.88284C0.210726 8.71279 0.0924889 8.49726 0.036514 8.26065C-0.019461 8.02403 -0.01094 7.77578 0.0611131 7.54396C0.133166 7.31214 0.265876 7.10602 0.444228 6.94891C0.62258 6.79179 0.839458 6.68997 1.07032 6.65494L6.46638 5.83612L8.87879 0.727359V0.728665Z" fill="#EF802F"/>
</svg>
